<svg width="45" height="85" viewBox="0 0 45 85" fill="none" xmlns="http://www.w3.org/2000/svg">
<g id="CarGame 1" clip-path="url(#clip0_7_26)">
<g id="Car">
<g id="car 1">
<g id="layer1">
<g id="g3162">
<path id="path3178" d="M33.546 1.503L33.5154 2.43942L35.313 2.4909L37.1107 2.54234L37.0801 3.47883L37.0496 4.41525L37.9483 4.44101L38.8472 4.46672L38.8167 5.40319L38.7861 6.3396L39.6849 6.36532L40.5837 6.39114L40.5532 7.32756L40.5227 8.26397L41.4214 8.28979L42.3202 8.31551L41.893 21.4257L41.4658 34.5357L42.3648 34.5616L43.2635 34.5872L43.233 35.5237L43.2024 36.4601L44.1013 36.4859L45 36.5117L44.9694 37.4481L44.939 38.3845L44.0402 38.3588L43.1415 38.333L43.111 39.2695L43.0804 40.2059L42.1816 40.1802L41.2829 40.1544L40.6116 60.7561L39.9405 81.3574L39.0417 81.3322L38.1427 81.306L38.1122 82.2428L38.0818 83.1787L37.1831 83.1535L36.2844 83.1281L36.2535 84.0633L36.2231 85L20.9439 84.5624L5.66471 84.1249L5.69521 83.1889L5.72571 82.2521L4.82699 82.2259L3.92818 82.2007L3.95858 81.2639L3.98918 80.3277L3.09046 80.3019L2.19165 80.2762L2.86295 59.6745L3.53416 39.0729L2.63535 39.0472L1.73663 39.0214L1.76713 38.0849L1.79753 37.1486L0.898816 37.1228L0 37.097L0.0305971 36.1607L0.0610021 35.2241L0.959913 35.2499L1.85863 35.2756L1.88913 34.3393L1.91973 33.4028L2.81835 33.4285L3.71726 33.4543L4.14437 20.3442L4.57148 7.23399L5.47029 7.25981L6.3691 7.28554L6.3997 6.34912L6.43011 5.41264L7.32892 5.43836L8.22754 5.46415L8.25814 4.52773L8.28864 3.59128L9.18745 3.617L10.0862 3.64278L10.1168 2.70634L10.1473 1.7699L11.9448 1.82138L13.7424 1.8729L13.7729 0.936442L13.8034 0L23.69 0.283306L33.5765 0.566507L33.546 1.503Z" fill="#57556B"/>
<path id="path3176" d="M33.546 1.503L33.5154 2.43942L35.313 2.4909L37.1107 2.54234L37.0801 3.47883L37.0496 4.41525L37.9483 4.44101L38.8472 4.46672L38.8167 5.40319L38.7861 6.3396L39.6849 6.36532L40.5837 6.39114L40.5532 7.32756L40.5227 8.26397L41.4214 8.28979L42.3202 8.31551L41.893 21.4257L41.4658 34.5357L42.3648 34.5616L43.2635 34.5872L43.233 35.5237L43.2024 36.4601L44.1013 36.4859L45 36.5117L44.9694 37.4481L44.939 38.3845L44.0402 38.3588L43.1415 38.333L43.111 39.2695L43.0804 40.2059L42.1816 40.1802L41.2829 40.1544L40.6116 60.7561L39.9405 81.3574L39.0417 81.3322L38.1427 81.306L38.1122 82.2428L38.0818 83.1787L37.1831 83.1535L36.2844 83.1281L36.2535 84.0633L36.2231 85L20.9439 84.5624L5.66471 84.1249L5.69521 83.1889L5.72571 82.2521L4.82699 82.2259L3.92818 82.2007L3.95858 81.2639L3.98918 80.3277L3.09046 80.3019L2.19165 80.2762L2.86295 59.6745L3.53416 39.0729L2.63535 39.0472L1.73663 39.0214L1.76713 38.0849L1.79753 37.1486L0.898816 37.1228L0 37.097L0.0305971 36.1607L0.0610021 35.2241L0.959913 35.2499L1.85863 35.2756L1.88913 34.3393L1.91973 33.4028L2.81835 33.4285L3.71726 33.4543L4.14437 20.3442L4.57148 7.23399L5.47029 7.25981L6.3691 7.28554L6.3997 6.34912L6.43011 5.41264L7.32892 5.43836L8.22754 5.46415L8.25814 4.52773L8.28864 3.59128L9.18745 3.617L10.0862 3.64278L10.1168 2.70634L10.1473 1.7699L11.9448 1.82138L13.7424 1.8729L13.7729 0.936442L13.8034 0L23.69 0.283306L33.5765 0.566507L33.546 1.503ZM10.9074 33.6603L10.8464 35.5331L11.7452 35.559L12.6439 35.5847L12.6135 36.5211L12.5829 37.4574L13.4817 37.4833L14.3805 37.5091L14.411 36.5725L14.4415 35.6361L13.5427 35.6104L12.6439 35.5847L12.705 33.7118L12.766 31.8388L11.8672 31.8131L10.9685 31.7874L10.9074 33.6603ZM37.5962 42.8607L37.5656 43.7972L36.6669 43.7714L35.7681 43.7457L35.7376 44.6821L35.7071 45.6184L36.6059 45.6443L37.5047 45.67L37.5353 44.7336L37.5656 43.7972L38.4645 43.8229L39.3632 43.8486L39.3937 42.9122L39.4242 41.9758L38.5255 41.9501L37.6268 41.9243L37.5962 42.8607ZM5.24019 41.9338L5.20969 42.8701L6.10841 42.8959L7.00722 42.9216L6.97672 43.858L6.94613 44.7946L7.84504 44.8203L8.74366 44.846L8.77426 43.9095L8.80476 42.9732L7.90604 42.9475L7.00722 42.9216L7.03763 41.9852L7.06823 41.0487L6.16951 41.023L5.2706 40.9974L5.24019 41.9338ZM37.108 57.8436L37.0775 58.7802L37.9763 58.8059L38.875 58.8316L38.9056 57.8952L38.9361 56.9588L38.0373 56.9331L37.1386 56.9073L37.108 57.8436ZM4.75199 56.9168L4.72139 57.8532L5.6202 57.8788L6.51902 57.9046L6.54952 56.9682L6.58002 56.0318L5.6813 56.0061L4.78249 55.9803L4.75199 56.9168Z" fill="#75BEE9"/>
<path id="path3174" d="M33.546 1.503L33.5154 2.43942L35.313 2.4909L37.1107 2.54234L37.0801 3.47883L37.0496 4.41525L37.9483 4.44101L38.8472 4.46672L38.8167 5.40319L38.7861 6.3396L39.6849 6.36532L40.5837 6.39114L40.5532 7.32756L40.5227 8.26397L41.4214 8.28979L42.3202 8.31551L41.893 21.4257L41.4658 34.5357L42.3648 34.5616L43.2635 34.5872L43.233 35.5237L43.2024 36.4601L44.1013 36.4859L45 36.5117L44.9694 37.4481L44.939 38.3845L44.0402 38.3588L43.1415 38.333L43.111 39.2695L43.0804 40.2059L42.1816 40.1802L41.2829 40.1544L40.6116 60.7561L39.9405 81.3574L39.0417 81.3322L38.1427 81.306L38.1122 82.2428L38.0818 83.1787L37.1831 83.1535L36.2844 83.1281L36.2535 84.0633L36.2231 85L20.9439 84.5624L5.66471 84.1249L5.69521 83.1889L5.72571 82.2521L4.82699 82.2259L3.92818 82.2007L3.95858 81.2639L3.98918 80.3277L3.09046 80.3019L2.19165 80.2762L2.86295 59.6745L3.53416 39.0729L2.63535 39.0472L1.73663 39.0214L1.76713 38.0849L1.79753 37.1486L0.898816 37.1228L0 37.097L0.0305971 36.1607L0.0610021 35.2241L0.959913 35.2499L1.85863 35.2756L1.88913 34.3393L1.91973 33.4028L2.81835 33.4285L3.71726 33.4543L4.14437 20.3442L4.57148 7.23399L5.47029 7.25981L6.3691 7.28554L6.3997 6.34912L6.43011 5.41264L7.32892 5.43836L8.22754 5.46415L8.25814 4.52773L8.28864 3.59128L9.18745 3.617L10.0862 3.64278L10.1168 2.70634L10.1473 1.7699L11.9448 1.82138L13.7424 1.8729L13.7729 0.936442L13.8034 0L23.69 0.283306L33.5765 0.566507L33.546 1.503ZM16.5137 27.2597L16.4832 28.1961L13.7867 28.1189L11.0905 28.0416L11.0599 28.9782L11.0295 29.9146L9.23186 29.863L7.43433 29.8115L7.34283 32.6208L7.25133 35.4301L8.15004 35.4559L9.04876 35.4816L8.95736 38.2909L8.86576 41.1003L7.96694 41.0744L7.06823 41.0487L7.12923 39.1759L7.19032 37.3031L6.29151 37.2772L5.39279 37.2514L5.17919 43.8066L4.96549 50.3617L5.8644 50.3874L6.76312 50.4132L6.82422 48.5403L6.88512 46.6674L7.78394 46.6931L8.68266 46.7188L8.77426 43.9095L8.86576 41.1003L9.76457 41.126L10.6633 41.1518L10.6938 40.2153L10.7244 39.2789L13.4207 39.3562L16.117 39.4334L16.1475 38.4969L16.1781 37.5605L22.4695 37.7408L28.7609 37.921L28.7304 38.8575L28.6999 39.7939L29.5987 39.8196L30.4975 39.8453L30.5585 37.9725L30.6195 36.0996L31.5184 36.1255L32.4172 36.1512L32.5391 32.4054L32.6612 28.6596L30.8636 28.6082L29.066 28.5566L29.0966 27.6202L29.1271 26.6838L22.8357 26.5035L16.5443 26.3233L16.5137 27.2597ZM37.6877 40.0513L37.6268 41.9243L36.728 41.8985L35.8291 41.8727L35.7376 44.6821L35.6461 47.4915L36.5449 47.5172L37.4436 47.5429L37.3827 49.4157L37.3216 51.2886L38.2204 51.3145L39.1192 51.3402L39.3327 44.7851L39.5463 38.23L38.6475 38.2042L37.7487 38.1786L37.6877 40.0513ZM37.0775 58.7802L36.8944 64.3988L37.7933 64.4245L38.6919 64.4503L38.875 58.8316L39.0581 53.213L38.1594 53.1873L37.2605 53.1616L37.0775 58.7802ZM4.72139 57.8532L4.53829 63.4717L5.4372 63.4976L6.33601 63.5233L6.51902 57.9046L6.70202 52.286L5.80331 52.2602L4.90449 52.2346L4.72139 57.8532Z" fill="#5589A7"/>
<path id="path3172" d="M33.546 1.503L33.5154 2.43942L35.313 2.4909L37.1107 2.54234L37.0801 3.47883L37.0496 4.41525L37.9483 4.44101L38.8472 4.46672L38.8167 5.40319L38.7861 6.3396L39.6849 6.36532L40.5837 6.39114L40.5532 7.32756L40.5227 8.26397L41.4214 8.28979L42.3202 8.31551L41.893 21.4257L41.4658 34.5357L42.3648 34.5616L43.2635 34.5872L43.233 35.5237L43.2024 36.4601L44.1013 36.4859L45 36.5117L44.9694 37.4481L44.939 38.3845L44.0402 38.3588L43.1415 38.333L43.111 39.2695L43.0804 40.2059L42.1816 40.1802L41.2829 40.1544L40.6116 60.7561L39.9405 81.3574L39.0417 81.3322L38.1427 81.306L38.1122 82.2428L38.0818 83.1787L37.1831 83.1535L36.2844 83.1281L36.2535 84.0633L36.2231 85L20.9439 84.5624L5.66471 84.1249L5.69521 83.1889L5.72571 82.2521L4.82699 82.2259L3.92818 82.2007L3.95858 81.2639L3.98918 80.3277L3.09046 80.3019L2.19165 80.2762L2.86295 59.6745L3.53416 39.0729L2.63535 39.0472L1.73663 39.0214L1.76713 38.0849L1.79753 37.1486L0.898816 37.1228L0 37.097L0.0305971 36.1607L0.0610021 35.2241L0.959913 35.2499L1.85863 35.2756L1.88913 34.3393L1.91973 33.4028L2.81835 33.4285L3.71726 33.4543L4.14437 20.3442L4.57148 7.23399L5.47029 7.25981L6.3691 7.28554L6.3997 6.34912L6.43011 5.41264L7.32892 5.43836L8.22754 5.46415L8.25814 4.52773L8.28864 3.59128L9.18745 3.617L10.0862 3.64278L10.1168 2.70634L10.1473 1.7699L11.9448 1.82138L13.7424 1.8729L13.7729 0.936442L13.8034 0L23.69 0.283306L33.5765 0.566507L33.546 1.503ZM16.5137 27.2597L16.4832 28.1961L13.7867 28.1189L11.0905 28.0416L11.0599 28.9782L11.0295 29.9146L9.23186 29.863L7.43433 29.8115L7.34283 32.6208L7.25133 35.4301L8.15004 35.4559L9.04876 35.4816L8.95736 38.2909L8.86576 41.1003L7.96694 41.0744L7.06823 41.0487L7.12923 39.1759L7.19032 37.3031L6.29151 37.2772L5.39279 37.2514L5.17919 43.8066L4.96549 50.3617L5.8644 50.3874L6.76312 50.4132L6.82422 48.5403L6.88512 46.6674L7.78394 46.6931L8.68266 46.7188L8.77426 43.9095L8.86576 41.1003L9.76457 41.126L10.6633 41.1518L10.6938 40.2153L10.7244 39.2789L13.4207 39.3562L16.117 39.4334L16.1475 38.4969L16.1781 37.5605L22.4695 37.7408L28.7609 37.921L28.7304 38.8575L28.6999 39.7939L31.3963 39.8711L34.0926 39.9483L34.0621 40.8848L34.0316 41.8212L34.9303 41.847L35.8291 41.8727L35.7376 44.6821L35.6461 47.4915L36.5449 47.5172L37.4436 47.5429L37.3827 49.4157L37.3216 51.2886L38.2204 51.3145L39.1192 51.3402L39.3327 44.7851L39.5463 38.23L38.6475 38.2042L37.7487 38.1786L37.6877 40.0513L37.6268 41.9243L36.728 41.8985L35.8291 41.8727L35.9206 39.0635L36.0122 36.2541L36.9109 36.2798L37.8099 36.3057L37.9013 33.4964L37.9928 30.687L36.1953 30.6355L34.3977 30.584L34.4283 29.6476L34.4587 28.7112L31.7625 28.6339L29.066 28.5566L29.0966 27.6202L29.1271 26.6838L22.8357 26.5035L16.5443 26.3233L16.5137 27.2597ZM37.0775 58.7802L36.8944 64.3988L37.7933 64.4245L38.6919 64.4503L38.875 58.8316L39.0581 53.213L38.1594 53.1873L37.2605 53.1616L37.0775 58.7802ZM4.72139 57.8532L4.53829 63.4717L5.4372 63.4976L6.33601 63.5233L6.51902 57.9046L6.70202 52.286L5.80331 52.2602L4.90449 52.2346L4.72139 57.8532Z" fill="#57556B"/>
<path id="path3170" d="M33.546 1.503L33.5154 2.43942L35.313 2.4909L37.1107 2.54234L37.0801 3.47883L37.0496 4.41525L37.9483 4.44101L38.8472 4.46672L38.8167 5.40319L38.7861 6.3396L39.6849 6.36532L40.5837 6.39114L40.5532 7.32756L40.5227 8.26397L41.4214 8.28979L42.3202 8.31551L41.893 21.4257L41.4658 34.5357L42.3648 34.5616L43.2635 34.5872L43.233 35.5237L43.2024 36.4601L44.1013 36.4859L45 36.5117L44.9694 37.4481L44.939 38.3845L44.0402 38.3588L43.1415 38.333L43.111 39.2695L43.0804 40.2059L42.1816 40.1802L41.2829 40.1544L40.6116 60.7561L39.9405 81.3574L39.0417 81.3322L38.1427 81.306L38.1122 82.2428L38.0818 83.1787L37.1831 83.1535L36.2844 83.1281L36.2535 84.0633L36.2231 85L20.9439 84.5624L5.66471 84.1249L5.69521 83.1889L5.72571 82.2521L4.82699 82.2259L3.92818 82.2007L3.95858 81.2639L3.98918 80.3277L3.09046 80.3019L2.19165 80.2762L2.86295 59.6745L3.53416 39.0729L2.63535 39.0472L1.73663 39.0214L1.76713 38.0849L1.79753 37.1486L0.898816 37.1228L0 37.097L0.0305971 36.1607L0.0610021 35.2241L0.959913 35.2499L1.85863 35.2756L1.88913 34.3393L1.91973 33.4028L2.81835 33.4285L3.71726 33.4543L4.14437 20.3442L4.57148 7.23399L5.47029 7.25981L6.3691 7.28554L6.3997 6.34912L6.43011 5.41264L7.32892 5.43836L8.22754 5.46415L8.25814 4.52773L8.28864 3.59128L9.18745 3.617L10.0862 3.64278L10.1168 2.70634L10.1473 1.7699L11.9448 1.82138L13.7424 1.8729L13.7729 0.936442L13.8034 0L23.69 0.283306L33.5765 0.566507L33.546 1.503ZM13.5287 8.42795L13.4983 9.36436L11.7007 9.31291L9.90317 9.26136L9.87267 10.1979L9.84217 11.1343L8.94345 11.1086L8.04463 11.0828L8.01413 12.0191L7.98354 12.9557L7.08472 12.9299L6.186 12.9042L5.9419 20.3956L5.6978 27.8872L8.39405 27.9645L11.0905 28.0416L11.0599 28.9782L11.0295 29.9146L9.23186 29.863L7.43433 29.8115L7.34283 32.6208L7.25133 35.4301L8.15004 35.4559L9.04876 35.4816L8.95736 38.2909L8.86576 41.1003L7.96694 41.0744L7.06823 41.0487L7.12923 39.1759L7.19032 37.3031L6.29151 37.2772L5.39279 37.2514L5.17919 43.8066L4.96549 50.3617L5.8644 50.3874L6.76312 50.4132L6.82422 48.5403L6.88512 46.6674L7.78394 46.6931L8.68266 46.7188L8.40815 55.1468L8.13355 63.5747L7.23473 63.549L6.33601 63.5233L6.51902 57.9046L6.70202 52.286L5.80331 52.2602L4.90449 52.2346L4.72139 57.8532L4.53829 63.4717L5.4372 63.4976L6.33601 63.5233L6.30542 64.4597L6.27492 65.3961L5.3761 65.3704L4.47738 65.3447L4.23318 72.8362L3.98918 80.3277L4.8879 80.3534L5.78681 80.3791L5.75631 81.3153L5.72571 82.2521L6.62443 82.2774L7.52324 82.3035L7.55375 81.3668L7.58425 80.4307L8.48316 80.4565L9.38187 80.4822L9.35137 81.4181L9.32078 82.3549L12.0172 82.4325L14.7135 82.5093L14.7441 81.5733L14.7746 80.6367L13.8757 80.6109L12.9769 80.5851L13.0075 79.6488L13.0381 78.7123L12.1391 78.6865L11.2404 78.6608L11.3625 74.915L11.4845 71.1692L9.68698 71.1178L7.88944 71.0663L7.73684 75.7485L7.58425 80.4307L6.68553 80.4049L5.78681 80.3791L5.96981 74.7605L6.15291 69.1419L7.05163 69.1677L7.95045 69.1934L8.04195 66.3841L8.13355 63.5747L9.03227 63.6006L9.93108 63.6263L9.83948 66.4356L9.74798 69.2449L12.4443 69.3221L15.1407 69.3994L15.1712 68.463L15.2017 67.5265L14.3029 67.5008L13.404 67.475L13.4651 65.6021L13.5261 63.7293L12.6274 63.7036L11.7286 63.6777L11.7896 61.8049L11.8507 59.932L10.9519 59.9063L10.0531 59.8805L10.2057 55.1984L10.3582 50.5161L11.257 50.5419L12.1557 50.5677L12.2473 47.7583L12.3388 44.949L13.2376 44.9747L14.1364 45.0006L14.167 44.064L14.1975 43.1276L15.0962 43.1535L15.995 43.1792L16.0255 42.2427L16.0561 41.3063L13.3596 41.229L10.6633 41.1518L10.6938 40.2153L10.7244 39.2789L13.4207 39.3562L16.117 39.4334L16.1475 38.4969L16.1781 37.5605L22.4695 37.7408L28.7609 37.921L28.7304 38.8575L28.6999 39.7939L31.3963 39.8711L34.0926 39.9483L34.0621 40.8848L34.0316 41.8212L34.9303 41.847L35.8291 41.8727L35.7376 44.6821L35.6461 47.4915L36.5449 47.5172L37.4436 47.5429L37.3827 49.4157L37.3216 51.2886L38.2204 51.3145L39.1192 51.3402L39.3327 44.7851L39.5463 38.23L38.6475 38.2042L37.7487 38.1786L37.6877 40.0513L37.6268 41.9243L36.728 41.8985L35.8291 41.8727L35.9206 39.0635L36.0122 36.2541L36.9109 36.2798L37.8099 36.3057L37.9013 33.4964L37.9928 30.687L36.1953 30.6355L34.3977 30.584L34.4283 29.6476L34.4587 28.7112L31.7625 28.6339L29.066 28.5566L29.0966 27.6202L29.1271 26.6838L22.8357 26.5035L16.5443 26.3233L16.5137 27.2597L16.4832 28.1961L13.7867 28.1189L11.0905 28.0416L11.121 27.1052L11.1515 26.1688L10.2528 26.1431L9.35396 26.1174L9.56757 19.5623L9.78107 13.0071L10.6799 13.0329L11.5787 13.0587L11.6093 12.1222L11.6397 11.1857L13.4372 11.2372L15.2349 11.2888L15.2653 10.3523L15.2958 9.4159L16.1947 9.44163L17.0934 9.46745L17.1239 8.53104L17.1544 7.59453L15.3569 7.54308L13.5592 7.49153L13.5287 8.42795ZM10.5719 43.9611L10.4802 46.7705L9.58147 46.7447L8.68266 46.7188L8.77426 43.9095L8.86576 41.1003L9.76457 41.126L10.6633 41.1518L10.5719 43.9611ZM37.0775 58.7802L36.8944 64.3988L37.7933 64.4245L38.6919 64.4503L38.875 58.8316L39.0581 53.213L38.1594 53.1873L37.2605 53.1616L37.0775 58.7802Z" fill="#2E2F51"/>
<path id="path3168" d="M33.546 1.503L33.5154 2.43942L35.313 2.4909L37.1107 2.54234L37.0801 3.47883L37.0496 4.41525L37.9483 4.44101L38.8472 4.46672L38.8167 5.40319L38.7861 6.3396L39.6849 6.36532L40.5837 6.39114L40.5532 7.32756L40.5227 8.26397L41.4214 8.28979L42.3202 8.31551L41.893 21.4257L41.4658 34.5357L42.3648 34.5616L43.2635 34.5872L43.233 35.5237L43.2024 36.4601L44.1013 36.4859L45 36.5117L44.9694 37.4481L44.939 38.3845L44.0402 38.3588L43.1415 38.333L43.111 39.2695L43.0804 40.2059L42.1816 40.1802L41.2829 40.1544L40.6116 60.7561L39.9405 81.3574L39.0417 81.3322L38.1427 81.306L38.1122 82.2428L38.0818 83.1787L37.1831 83.1535L36.2844 83.1281L36.2535 84.0633L36.2231 85L20.9439 84.5624L5.66471 84.1249L5.69521 83.1889L5.72571 82.2521L4.82699 82.2259L3.92818 82.2007L3.95858 81.2639L3.98918 80.3277L3.09046 80.3019L2.19165 80.2762L2.86295 59.6745L3.53416 39.0729L2.63535 39.0472L1.73663 39.0214L1.76713 38.0849L1.79753 37.1486L0.898816 37.1228L0 37.097L0.0305971 36.1607L0.0610021 35.2241L0.959913 35.2499L1.85863 35.2756L1.88913 34.3393L1.91973 33.4028L2.81835 33.4285L3.71726 33.4543L4.14437 20.3442L4.57148 7.23399L5.47029 7.25981L6.3691 7.28554L6.3997 6.34912L6.43011 5.41264L7.32892 5.43836L8.22754 5.46415L8.25814 4.52773L8.28864 3.59128L9.18745 3.617L10.0862 3.64278L10.1168 2.70634L10.1473 1.7699L11.9448 1.82138L13.7424 1.8729L13.7729 0.936442L13.8034 0L23.69 0.283306L33.5765 0.566507L33.546 1.503ZM33.3629 7.12165L33.3324 8.05807L35.13 8.10952L36.9276 8.16097L36.897 9.09748L36.8665 10.0339L37.7653 10.0596L38.6642 10.0854L38.6336 11.0219L38.603 11.9583L39.5019 11.984L40.4006 12.0098L40.4311 11.0733L40.4616 10.1369L39.5628 10.1113L38.6642 10.0854L38.6947 9.14893L38.7251 8.21252L37.8264 8.18679L36.9276 8.16097L36.958 7.22456L36.9886 6.28812L35.191 6.23668L33.3934 6.18508L33.3629 7.12165ZM9.99477 6.45203L9.96417 7.38844L9.06536 7.36281L8.16664 7.33708L8.13614 8.2735L8.10564 9.20991L7.20692 9.18409L6.30801 9.15846L6.2776 10.0949L6.24701 11.0313L7.14582 11.057L8.04463 11.0828L8.01413 12.0191L7.98354 12.9557L7.08472 12.9299L6.186 12.9042L5.9419 20.3956L5.6978 27.8872L8.39405 27.9645L11.0905 28.0416L11.0599 28.9782L11.0295 29.9146L9.23186 29.863L7.43433 29.8115L7.34283 32.6208L7.25133 35.4301L8.15004 35.4559L9.04876 35.4816L8.95736 38.2909L8.86576 41.1003L7.96694 41.0744L7.06823 41.0487L7.12923 39.1759L7.19032 37.3031L6.29151 37.2772L5.39279 37.2514L5.4232 36.3151L5.4537 35.3787L3.65616 35.3271L1.85863 35.2756L1.82803 36.2121L1.79753 37.1486L3.59507 37.2001L5.39279 37.2514L5.17919 43.8066L4.96549 50.3617L5.8644 50.3874L6.76312 50.4132L6.82422 48.5403L6.88512 46.6674L7.78394 46.6931L8.68266 46.7188L8.40815 55.1468L8.13355 63.5747L7.23473 63.549L6.33601 63.5233L6.51902 57.9046L6.70202 52.286L5.80331 52.2602L4.90449 52.2346L4.72139 57.8532L4.53829 63.4717L5.4372 63.4976L6.33601 63.5233L6.30542 64.4597L6.27492 65.3961L5.3761 65.3704L4.47738 65.3447L4.23318 72.8362L3.98918 80.3277L4.8879 80.3534L5.78681 80.3791L5.75631 81.3153L5.72571 82.2521L6.62443 82.2774L7.52324 82.3035L7.55375 81.3668L7.58425 80.4307L8.48316 80.4565L9.38187 80.4822L9.35137 81.4181L9.32078 82.3549L16.5111 82.5607L23.7013 82.7673L23.7318 81.8305L23.7623 80.8941L26.4586 80.9714L29.1548 81.0485L29.1854 80.1121L29.216 79.1758L30.1147 79.2015L31.0136 79.2273L31.1357 75.4815L31.2577 71.7357L29.4601 71.6842L27.6626 71.6329L27.7235 69.7599L27.7846 67.8869L29.5821 67.9386L31.3798 67.99L31.4408 66.1171L31.5018 64.2443L32.4006 64.27L33.2993 64.2957L33.5434 56.8043L33.7874 49.3127L32.8887 49.287L31.99 49.2613L32.0815 46.452L32.1731 43.6426L30.3754 43.5912L28.5778 43.5396L28.6389 41.6667L28.6999 39.7939L31.3963 39.8711L34.0926 39.9483L34.0621 40.8848L34.0316 41.8212L34.9303 41.847L35.8291 41.8727L35.7376 44.6821L35.6461 47.4915L36.5449 47.5172L37.4436 47.5429L37.3827 49.4157L37.3216 51.2886L38.2204 51.3145L39.1192 51.3402L39.3327 44.7851L39.5463 38.23L41.3438 38.2815L43.1415 38.333L43.172 37.3965L43.2024 36.4601L41.4049 36.4086L39.6073 36.3572L39.5767 37.2935L39.5463 38.23L38.6475 38.2042L37.7487 38.1786L37.6877 40.0513L37.6268 41.9243L36.728 41.8985L35.8291 41.8727L35.9206 39.0635L36.0122 36.2541L36.9109 36.2798L37.8099 36.3057L37.9013 33.4964L37.9928 30.687L36.1953 30.6355L34.3977 30.584L34.4283 29.6476L34.4587 28.7112L31.7625 28.6339L29.066 28.5566L29.0966 27.6202L29.1271 26.6838L32.7222 26.7867L36.3173 26.8898L36.5004 21.2712L36.6834 15.6526L35.7846 15.6267L34.8859 15.601L34.9165 14.6646L34.9469 13.7282L34.0481 13.7024L33.1494 13.6766L33.1799 12.7402L33.2104 11.8038L32.3116 11.7779L31.4129 11.7523L31.4434 10.8159L31.4739 9.87944L29.6763 9.8279L27.8788 9.77635L27.9093 8.83994L27.9397 7.90352L20.7496 7.69753L13.5592 7.49153L13.5898 6.55512L13.6203 5.61863L11.8228 5.56711L10.0253 5.51568L9.99477 6.45203ZM13.5287 8.42795L13.4983 9.36436L11.7007 9.31291L9.90317 9.26136L9.87267 10.1979L9.84217 11.1343L8.94345 11.1086L8.04463 11.0828L8.07504 10.1464L8.10564 9.20991L9.00436 9.23564L9.90317 9.26136L9.93367 8.32504L9.96417 7.38844L11.7618 7.44008L13.5592 7.49153L13.5287 8.42795ZM29.1576 25.7473L29.1271 26.6838L22.8357 26.5035L16.5443 26.3233L16.5137 27.2597L16.4832 28.1961L13.7867 28.1189L11.0905 28.0416L11.121 27.1052L11.1515 26.1688L13.8478 26.246L16.5443 26.3233L16.5746 25.3869L16.6052 24.4504L22.8966 24.6306L29.1881 24.8109L29.1576 25.7473ZM28.7304 38.8575L28.6999 39.7939L22.4085 39.6136L16.117 39.4334L16.0865 40.3698L16.0561 41.3063L13.3596 41.229L10.6633 41.1518L10.5719 43.9611L10.4802 46.7705L9.58147 46.7447L8.68266 46.7188L8.77426 43.9095L8.86576 41.1003L9.76457 41.126L10.6633 41.1518L10.6938 40.2153L10.7244 39.2789L13.4207 39.3562L16.117 39.4334L16.1475 38.4969L16.1781 37.5605L22.4695 37.7408L28.7609 37.921L28.7304 38.8575ZM9.83948 66.4356L9.74798 69.2449L12.4443 69.3221L15.1407 69.3994L15.1102 70.3358L15.0797 71.2722L21.3712 71.4526L27.6626 71.6329L27.6321 72.5692L27.6016 73.5057L21.3101 73.3254L15.0187 73.1452L15.0491 72.2087L15.0797 71.2722L11.4845 71.1692L7.88944 71.0663L7.73684 75.7485L7.58425 80.4307L6.68553 80.4049L5.78681 80.3791L5.96981 74.7605L6.15291 69.1419L7.05163 69.1677L7.95045 69.1934L8.04195 66.3841L8.13355 63.5747L9.03227 63.6006L9.93108 63.6263L9.83948 66.4356ZM37.0775 58.7802L36.8944 64.3988L37.7933 64.4245L38.6919 64.4503L38.875 58.8316L39.0581 53.213L38.1594 53.1873L37.2605 53.1616L37.0775 58.7802Z" fill="#17181E"/>
<path id="path3166" d="M33.546 1.503L33.5154 2.43942L35.313 2.4909L37.1107 2.54234L37.0801 3.47883L37.0496 4.41525L37.9483 4.44101L38.8472 4.46672L38.8167 5.40319L38.7861 6.3396L39.6849 6.36532L40.5837 6.39114L40.5532 7.32756L40.5227 8.26397L41.4214 8.28979L42.3202 8.31551L41.893 21.4257L41.4658 34.5357L42.3648 34.5616L43.2635 34.5872L43.233 35.5237L43.2024 36.4601L44.1013 36.4859L45 36.5117L44.9694 37.4481L44.939 38.3845L44.0402 38.3588L43.1415 38.333L43.111 39.2695L43.0804 40.2059L42.1816 40.1802L41.2829 40.1544L40.6116 60.7561L39.9405 81.3574L39.0417 81.3322L38.1427 81.306L38.1122 82.2428L38.0818 83.1787L37.1831 83.1535L36.2844 83.1281L36.2535 84.0633L36.2231 85L20.9439 84.5624L5.66471 84.1249L5.69521 83.1889L5.72571 82.2521L4.82699 82.2259L3.92818 82.2007L3.95858 81.2639L3.98918 80.3277L3.09046 80.3019L2.19165 80.2762L2.86295 59.6745L3.53416 39.0729L2.63535 39.0472L1.73663 39.0214L1.76713 38.0849L1.79753 37.1486L0.898816 37.1228L0 37.097L0.0305971 36.1607L0.0610021 35.2241L0.959913 35.2499L1.85863 35.2756L1.88913 34.3393L1.91973 33.4028L2.81835 33.4285L3.71726 33.4543L4.14437 20.3442L4.57148 7.23399L5.47029 7.25981L6.3691 7.28554L6.3997 6.34912L6.43011 5.41264L7.32892 5.43836L8.22754 5.46415L8.25814 4.52773L8.28864 3.59128L9.18745 3.617L10.0862 3.64278L10.1168 2.70634L10.1473 1.7699L11.9448 1.82138L13.7424 1.8729L13.7729 0.936442L13.8034 0L23.69 0.283306L33.5765 0.566507L33.546 1.503ZM11.8533 4.63076L11.8228 5.56711L10.0253 5.51568L8.22754 5.46415L8.19714 6.40058L8.16664 7.33708L7.26782 7.31136L6.3691 7.28554L6.30801 9.15846L6.24701 11.0313L7.14582 11.057L8.04463 11.0828L8.01413 12.0191L7.98354 12.9557L7.08472 12.9299L6.186 12.9042L5.9419 20.3956L5.6978 27.8872L8.39405 27.9645L11.0905 28.0416L11.0599 28.9782L11.0295 29.9146L9.23186 29.863L7.43433 29.8115L7.34283 32.6208L7.25133 35.4301L8.15004 35.4559L9.04876 35.4816L8.95736 38.2909L8.86576 41.1003L7.96694 41.0744L7.06823 41.0487L7.12923 39.1759L7.19032 37.3031L6.29151 37.2772L5.39279 37.2514L5.4232 36.3151L5.4537 35.3787L3.65616 35.3271L1.85863 35.2756L1.82803 36.2121L1.79753 37.1486L3.59507 37.2001L5.39279 37.2514L5.17919 43.8066L4.96549 50.3617L5.8644 50.3874L6.76312 50.4132L6.82422 48.5403L6.88512 46.6674L7.78394 46.6931L8.68266 46.7188L8.40815 55.1468L8.13355 63.5747L7.23473 63.549L6.33601 63.5233L6.51902 57.9046L6.70202 52.286L5.80331 52.2602L4.90449 52.2346L4.72139 57.8532L4.53829 63.4717L5.4372 63.4976L6.33601 63.5233L6.30542 64.4597L6.27492 65.3961L5.3761 65.3704L4.47738 65.3447L4.23318 72.8362L3.98918 80.3277L4.8879 80.3534L5.78681 80.3791L5.75631 81.3153L5.72571 82.2521L6.62443 82.2774L7.52324 82.3035L7.55375 81.3668L7.58425 80.4307L8.48316 80.4565L9.38187 80.4822L9.35137 81.4181L9.32078 82.3549L21.005 82.6897L32.6893 83.0245L32.7197 82.0885L32.75 81.1517L33.6488 81.177L34.5474 81.2032L34.517 82.1391L34.4865 83.0759L35.3852 83.1012L36.2844 83.1281L36.3148 82.1913L36.3453 81.2546L37.244 81.2807L38.1427 81.306L38.3869 73.8147L38.631 66.3231L37.7322 66.2974L36.8334 66.2715L36.8639 65.3352L36.8944 64.3988L37.7933 64.4245L38.6919 64.4503L38.875 58.8316L39.0581 53.213L38.1594 53.1873L37.2605 53.1616L37.0775 58.7802L36.8944 64.3988L35.9957 64.373L35.0968 64.3473L35.3714 55.9194L35.6461 47.4915L36.5449 47.5172L37.4436 47.5429L37.3827 49.4157L37.3216 51.2886L38.2204 51.3145L39.1192 51.3402L39.3327 44.7851L39.5463 38.23L41.3438 38.2815L43.1415 38.333L43.172 37.3965L43.2024 36.4601L41.4049 36.4086L39.6073 36.3572L39.5767 37.2935L39.5463 38.23L38.6475 38.2042L37.7487 38.1786L37.6877 40.0513L37.6268 41.9243L36.728 41.8985L35.8291 41.8727L35.9206 39.0635L36.0122 36.2541L36.9109 36.2798L37.8099 36.3057L37.9013 33.4964L37.9928 30.687L36.1953 30.6355L34.3977 30.584L34.4283 29.6476L34.4587 28.7112L37.1552 28.7884L39.8515 28.8656L40.0955 21.3741L40.3396 13.8826L39.4408 13.8569L38.5421 13.8311L38.5725 12.8948L38.603 11.9583L39.5019 11.984L40.4006 12.0098L40.4616 10.1369L40.5227 8.26397L39.6239 8.23824L38.7251 8.21252L38.7556 7.2762L38.7861 6.3396L36.9886 6.28812L35.191 6.23668L35.2215 5.30016L35.252 4.36376L23.5679 4.02902L11.8838 3.69427L11.8533 4.63076ZM33.3629 7.12165L33.3324 8.05807L35.13 8.10952L36.9276 8.16097L36.897 9.09748L36.8665 10.0339L37.7653 10.0596L38.6642 10.0854L38.6336 11.0219L38.603 11.9583L37.7043 11.9325L36.8055 11.9068L36.836 10.9703L36.8665 10.0339L35.069 9.98235L33.2714 9.93089L33.302 8.99439L33.3324 8.05807L23.4459 7.7748L13.5592 7.49153L13.5287 8.42795L13.4983 9.36436L11.7007 9.31291L9.90317 9.26136L9.87267 10.1979L9.84217 11.1343L8.94345 11.1086L8.04463 11.0828L8.07504 10.1464L8.10564 9.20991L9.00436 9.23564L9.90317 9.26136L9.93367 8.32504L9.96417 7.38844L11.7618 7.44008L13.5592 7.49153L13.5898 6.55512L13.6203 5.61863L23.5069 5.90194L33.3934 6.18508L33.3629 7.12165ZM29.1576 25.7473L29.1271 26.6838L31.8235 26.7611L34.5197 26.8383L34.4893 27.7747L34.4587 28.7112L31.7625 28.6339L29.066 28.5566L29.0966 27.6202L29.1271 26.6838L22.8357 26.5035L16.5443 26.3233L16.5137 27.2597L16.4832 28.1961L13.7867 28.1189L11.0905 28.0416L11.121 27.1052L11.1515 26.1688L13.8478 26.246L16.5443 26.3233L16.5746 25.3869L16.6052 24.4504L22.8966 24.6306L29.1881 24.8109L29.1576 25.7473ZM28.7304 38.8575L28.6999 39.7939L31.3963 39.8711L34.0926 39.9483L34.0621 40.8848L34.0316 41.8212L34.9303 41.847L35.8291 41.8727L35.7376 44.6821L35.6461 47.4915L34.7473 47.4655L33.8485 47.4398L33.94 44.6305L34.0316 41.8212L31.3353 41.7441L28.6389 41.6667L28.6695 40.7303L28.6999 39.7939L22.4085 39.6136L16.117 39.4334L16.0865 40.3698L16.0561 41.3063L13.3596 41.229L10.6633 41.1518L10.5719 43.9611L10.4802 46.7705L9.58147 46.7447L8.68266 46.7188L8.77426 43.9095L8.86576 41.1003L9.76457 41.126L10.6633 41.1518L10.6938 40.2153L10.7244 39.2789L13.4207 39.3562L16.117 39.4334L16.1475 38.4969L16.1781 37.5605L22.4695 37.7408L28.7609 37.921L28.7304 38.8575ZM35.0053 67.1565L34.9138 69.9659L35.8125 69.9917L36.7114 70.0175L36.5283 75.6361L36.3453 81.2546L35.4465 81.2293L34.5474 81.2032L34.7002 76.5209L34.8528 71.8388L31.2577 71.7357L27.6626 71.6329L27.6321 72.5692L27.6016 73.5057L21.3101 73.3254L15.0187 73.1452L15.0491 72.2087L15.0797 71.2722L11.4845 71.1692L7.88944 71.0663L7.73684 75.7485L7.58425 80.4307L6.68553 80.4049L5.78681 80.3791L5.96981 74.7605L6.15291 69.1419L7.05163 69.1677L7.95045 69.1934L8.04195 66.3841L8.13355 63.5747L9.03227 63.6006L9.93108 63.6263L9.83948 66.4356L9.74798 69.2449L12.4443 69.3221L15.1407 69.3994L15.1102 70.3358L15.0797 71.2722L21.3712 71.4526L27.6626 71.6329L27.693 70.6964L27.7235 69.7599L30.4199 69.8372L33.1162 69.9144L33.2078 67.1051L33.2993 64.2957L34.1981 64.3215L35.0968 64.3473L35.0053 67.1565Z" fill="#17191E"/>
<path id="path3164" d="M33.546 1.503L33.5154 2.43942L35.313 2.4909L37.1107 2.54234L37.0801 3.47883L37.0496 4.41525L37.9483 4.44101L38.8472 4.46672L38.8167 5.40319L38.7861 6.3396L39.6849 6.36532L40.5837 6.39114L40.5532 7.32756L40.5227 8.26397L41.4214 8.28979L42.3202 8.31551L41.893 21.4257L41.4658 34.5357L42.3648 34.5616L43.2635 34.5872L43.233 35.5237L43.2024 36.4601L44.1013 36.4859L45 36.5117L44.9694 37.4481L44.939 38.3845L44.0402 38.3588L43.1415 38.333L43.111 39.2695L43.0804 40.2059L42.1816 40.1802L41.2829 40.1544L40.6116 60.7561L39.9405 81.3574L39.0417 81.3322L38.1427 81.306L38.1122 82.2428L38.0818 83.1787L37.1831 83.1535L36.2844 83.1281L36.2535 84.0633L36.2231 85L20.9439 84.5624L5.66471 84.1249L5.69521 83.1889L5.72571 82.2521L4.82699 82.2259L3.92818 82.2007L3.95858 81.2639L3.98918 80.3277L3.09046 80.3019L2.19165 80.2762L2.86295 59.6745L3.53416 39.0729L2.63535 39.0472L1.73663 39.0214L1.76713 38.0849L1.79753 37.1486L0.898816 37.1228L0 37.097L0.0305971 36.1607L0.0610021 35.2241L0.959913 35.2499L1.85863 35.2756L1.88913 34.3393L1.91973 33.4028L2.81835 33.4285L3.71726 33.4543L4.14437 20.3442L4.57148 7.23399L5.47029 7.25981L6.3691 7.28554L6.3997 6.34912L6.43011 5.41264L7.32892 5.43836L8.22754 5.46415L8.25814 4.52773L8.28864 3.59128L9.18745 3.617L10.0862 3.64278L10.1168 2.70634L10.1473 1.7699L11.9448 1.82138L13.7424 1.8729L13.7729 0.936442L13.8034 0L23.69 0.283306L33.5765 0.566507L33.546 1.503ZM13.7118 2.80932L13.6813 3.74581L11.8838 3.69427L10.0862 3.64278L10.0557 4.5792L10.0253 5.51568L9.12645 5.48995L8.22754 5.46415L8.19714 6.40058L8.16664 7.33708L7.26782 7.31136L6.3691 7.28554L6.30801 9.15846L6.24701 11.0313L7.14582 11.057L8.04463 11.0828L8.01413 12.0191L7.98354 12.9557L7.08472 12.9299L6.186 12.9042L5.9419 20.3956L5.6978 27.8872L8.39405 27.9645L11.0905 28.0416L11.0599 28.9782L11.0295 29.9146L9.23186 29.863L7.43433 29.8115L7.34283 32.6208L7.25133 35.4301L8.15004 35.4559L9.04876 35.4816L8.95736 38.2909L8.86576 41.1003L7.96694 41.0744L7.06823 41.0487L7.12923 39.1759L7.19032 37.3031L6.29151 37.2772L5.39279 37.2514L5.4232 36.3151L5.4537 35.3787L3.65616 35.3271L1.85863 35.2756L1.82803 36.2121L1.79753 37.1486L3.59507 37.2001L5.39279 37.2514L5.17919 43.8066L4.96549 50.3617L5.8644 50.3874L6.76312 50.4132L6.82422 48.5403L6.88512 46.6674L7.78394 46.6931L8.68266 46.7188L8.40815 55.1468L8.13355 63.5747L7.23473 63.549L6.33601 63.5233L6.51902 57.9046L6.70202 52.286L5.80331 52.2602L4.90449 52.2346L4.72139 57.8532L4.53829 63.4717L5.4372 63.4976L6.33601 63.5233L6.30542 64.4597L6.27492 65.3961L5.3761 65.3704L4.47738 65.3447L4.23318 72.8362L3.98918 80.3277L4.8879 80.3534L5.78681 80.3791L5.75631 81.3153L5.72571 82.2521L6.62443 82.2774L7.52324 82.3035L7.55375 81.3668L7.58425 80.4307L8.48316 80.4565L9.38187 80.4822L9.35137 81.4181L9.32078 82.3549L21.005 82.6897L32.6893 83.0245L32.7197 82.0885L32.75 81.1517L33.6488 81.177L34.5474 81.2032L34.517 82.1391L34.4865 83.0759L35.3852 83.1012L36.2844 83.1281L36.3148 82.1913L36.3453 81.2546L37.244 81.2807L38.1427 81.306L38.3869 73.8147L38.631 66.3231L37.7322 66.2974L36.8334 66.2715L36.8639 65.3352L36.8944 64.3988L37.7933 64.4245L38.6919 64.4503L38.875 58.8316L39.0581 53.213L38.1594 53.1873L37.2605 53.1616L37.0775 58.7802L36.8944 64.3988L35.9957 64.373L35.0968 64.3473L35.3714 55.9194L35.6461 47.4915L36.5449 47.5172L37.4436 47.5429L37.3827 49.4157L37.3216 51.2886L38.2204 51.3145L39.1192 51.3402L39.3327 44.7851L39.5463 38.23L41.3438 38.2815L43.1415 38.333L43.172 37.3965L43.2024 36.4601L41.4049 36.4086L39.6073 36.3572L39.5767 37.2935L39.5463 38.23L38.6475 38.2042L37.7487 38.1786L37.6877 40.0513L37.6268 41.9243L36.728 41.8985L35.8291 41.8727L35.9206 39.0635L36.0122 36.2541L36.9109 36.2798L37.8099 36.3057L37.9013 33.4964L37.9928 30.687L36.1953 30.6355L34.3977 30.584L34.4283 29.6476L34.4587 28.7112L37.1552 28.7884L39.8515 28.8656L40.0955 21.3741L40.3396 13.8826L39.4408 13.8569L38.5421 13.8311L38.5725 12.8948L38.603 11.9583L39.5019 11.984L40.4006 12.0098L40.4616 10.1369L40.5227 8.26397L39.6239 8.23824L38.7251 8.21252L38.7556 7.2762L38.7861 6.3396L37.8874 6.31387L36.9886 6.28812L37.0191 5.35176L37.0496 4.41525L35.252 4.36376L33.4546 4.31229L33.4851 3.37579L33.5154 2.43942L23.6289 2.1561L13.7424 1.8729L13.7118 2.80932ZM33.3629 7.12165L33.3324 8.05807L35.13 8.10952L36.9276 8.16097L36.897 9.09748L36.8665 10.0339L37.7653 10.0596L38.6642 10.0854L38.6336 11.0219L38.603 11.9583L37.7043 11.9325L36.8055 11.9068L36.836 10.9703L36.8665 10.0339L35.069 9.98235L33.2714 9.93089L33.302 8.99439L33.3324 8.05807L23.4459 7.7748L13.5592 7.49153L13.5287 8.42795L13.4983 9.36436L11.7007 9.31291L9.90317 9.26136L9.87267 10.1979L9.84217 11.1343L8.94345 11.1086L8.04463 11.0828L8.07504 10.1464L8.10564 9.20991L9.00436 9.23564L9.90317 9.26136L9.93367 8.32504L9.96417 7.38844L11.7618 7.44008L13.5592 7.49153L13.5898 6.55512L13.6203 5.61863L23.5069 5.90194L33.3934 6.18508L33.3629 7.12165ZM29.1576 25.7473L29.1271 26.6838L31.8235 26.7611L34.5197 26.8383L34.4893 27.7747L34.4587 28.7112L31.7625 28.6339L29.066 28.5566L29.0966 27.6202L29.1271 26.6838L22.8357 26.5035L16.5443 26.3233L16.5137 27.2597L16.4832 28.1961L13.7867 28.1189L11.0905 28.0416L11.121 27.1052L11.1515 26.1688L13.8478 26.246L16.5443 26.3233L16.5746 25.3869L16.6052 24.4504L22.8966 24.6306L29.1881 24.8109L29.1576 25.7473ZM28.7304 38.8575L28.6999 39.7939L31.3963 39.8711L34.0926 39.9483L34.0621 40.8848L34.0316 41.8212L34.9303 41.847L35.8291 41.8727L35.7376 44.6821L35.6461 47.4915L34.7473 47.4655L33.8485 47.4398L33.94 44.6305L34.0316 41.8212L31.3353 41.7441L28.6389 41.6667L28.6695 40.7303L28.6999 39.7939L22.4085 39.6136L16.117 39.4334L16.0865 40.3698L16.0561 41.3063L13.3596 41.229L10.6633 41.1518L10.5719 43.9611L10.4802 46.7705L9.58147 46.7447L8.68266 46.7188L8.77426 43.9095L8.86576 41.1003L9.76457 41.126L10.6633 41.1518L10.6938 40.2153L10.7244 39.2789L13.4207 39.3562L16.117 39.4334L16.1475 38.4969L16.1781 37.5605L22.4695 37.7408L28.7609 37.921L28.7304 38.8575ZM35.0053 67.1565L34.9138 69.9659L35.8125 69.9917L36.7114 70.0175L36.5283 75.6361L36.3453 81.2546L35.4465 81.2293L34.5474 81.2032L34.7002 76.5209L34.8528 71.8388L31.2577 71.7357L27.6626 71.6329L27.6321 72.5692L27.6016 73.5057L21.3101 73.3254L15.0187 73.1452L15.0491 72.2087L15.0797 71.2722L11.4845 71.1692L7.88944 71.0663L7.73684 75.7485L7.58425 80.4307L6.68553 80.4049L5.78681 80.3791L5.96981 74.7605L6.15291 69.1419L7.05163 69.1677L7.95045 69.1934L8.04195 66.3841L8.13355 63.5747L9.03227 63.6006L9.93108 63.6263L9.83948 66.4356L9.74798 69.2449L12.4443 69.3221L15.1407 69.3994L15.1102 70.3358L15.0797 71.2722L21.3712 71.4526L27.6626 71.6329L27.693 70.6964L27.7235 69.7599L30.4199 69.8372L33.1162 69.9144L33.2078 67.1051L33.2993 64.2957L34.1981 64.3215L35.0968 64.3473L35.0053 67.1565Z" fill="black"/>
</g>
</g>
</g>
</g>
</g>
<defs>
<clipPath id="clip0_7_26">
<rect width="45" height="85" fill="white"/>
</clipPath>
</defs>
</svg>
